<svg width="60" height="59" viewBox="0 0 60 59" fill="none" xmlns="http://www.w3.org/2000/svg">
<g clip-path="url(#clip0_1_199)">
<path d="M0 -0.000244141H60V58.9998H0V-0.000244141Z" fill="white"/>
<path d="M43.8916 8.4888L43.8894 7.4396C43.8895 7.19746 43.872 6.94057 43.9012 6.70022C43.9511 6.28895 44.1821 5.8725 44.485 5.57973C44.8693 5.20821 45.4238 4.99676 45.9703 4.99979C46.5294 5.00289 47.0191 5.24175 47.4053 5.61624C47.9122 6.10791 47.9372 6.64958 47.9403 7.29858L47.9466 8.49082L50.9462 8.49859C51.6791 8.49976 52.4877 8.42603 53.2001 8.59383C53.8779 8.75347 54.4644 9.08252 54.9593 9.54946C55.447 10.0097 55.7885 10.6232 55.9255 11.2638C56.0264 11.7353 55.9946 12.2387 55.9939 12.7175L55.9902 14.571L56 20.9721L4.00815 20.9998L4.00773 14.6614L4.00708 12.7058C4.00723 12.364 3.98245 12.0007 4.02474 11.6621C4.13072 10.8133 4.52429 10.0364 5.17605 9.44405C5.62168 9.03903 6.17234 8.74156 6.76938 8.59433C7.58138 8.39406 8.50194 8.47176 9.33733 8.47231L12.1267 8.48506L12.1255 7.39416C12.1285 6.69525 12.1365 6.12079 12.6831 5.59498C13.0834 5.20991 13.5965 5.00767 14.1653 5.01211C14.7231 5.01646 15.229 5.22663 15.6143 5.60954C16.1992 6.19074 16.1732 6.81173 16.1741 7.56486C16.1745 7.86272 16.193 8.1702 16.1737 8.46644L16.1713 8.48109L22.7012 8.47069L22.7008 7.46917C22.7012 7.22748 22.6806 6.96444 22.715 6.72521C22.7764 6.29789 22.9963 5.8932 23.3125 5.58657C23.6832 5.22715 24.2127 5.02201 24.7411 5.01785C25.3154 5.01334 25.8303 5.2239 26.232 5.60951C26.5238 5.88956 26.7675 6.28028 26.8091 6.67926C26.834 6.91782 26.8181 7.1713 26.8192 7.41109L26.8233 8.47712L33.2168 8.48618L33.202 7.34279C33.2004 7.06371 33.1796 6.77115 33.2527 6.4985C33.3422 6.16464 33.5616 5.83873 33.809 5.58943C34.1567 5.23918 34.7003 5.01338 35.2058 5.00681C35.7804 4.99934 36.32 5.20631 36.7266 5.5915C37.2833 6.1188 37.3034 6.70615 37.3044 7.41042L37.3036 8.48953L43.8916 8.4888Z" fill="url(#paint0_linear_1_199)"/>
<path d="M16.0852 9.99976L16.3288 10.2774C16.8517 10.8927 17.0673 11.6191 16.9818 12.4132C16.8969 13.2013 16.4863 13.8877 15.8516 14.3803C15.2564 14.8422 14.4726 15.0671 13.7147 14.9821C12.9032 14.891 12.1764 14.4792 11.6767 13.8509C11.2261 13.2842 10.9147 12.4764 11.0209 11.7522L11.0288 11.7008C11.1275 11.0318 11.4747 10.5083 11.9358 10.0202L11.9502 11.3654C11.9593 12.1881 11.9469 12.8411 12.5898 13.4595C13.0172 13.8706 13.5218 14.0443 14.1158 14.0388C14.6344 14.034 15.1389 13.8078 15.5001 13.4507C15.7995 13.1548 16.0246 12.7292 16.0739 12.3148C16.1057 12.0472 16.0805 11.746 16.0811 11.475L16.0852 9.99976Z" fill="white"/>
<path d="M27.0545 9.99976L27.2205 10.1551C27.6107 10.5306 27.8816 11.0127 27.9634 11.5436L27.971 11.5904C28.0791 12.3137 27.8819 13.1733 27.4267 13.7589C26.9238 14.406 26.2276 14.8604 25.3961 14.9728C24.6049 15.0797 23.8217 14.8656 23.1895 14.389C22.5466 13.9043 22.1184 13.202 22.0213 12.4062C21.9334 11.6869 22.1175 10.9575 22.5828 10.3897L22.9446 10.0195L22.9431 11.4875C22.9422 12.1908 22.9055 12.8547 23.4298 13.4074C23.829 13.8284 24.353 14.0662 24.9407 14.0815C25.4917 14.0959 26.002 13.8928 26.3983 13.5212C26.7575 13.1845 27.005 12.7712 27.0529 12.2807C27.0801 12.0022 27.0517 11.7225 27.0498 11.4432L27.0545 9.99976Z" fill="white"/>
<path d="M37.042 9.99976C37.2178 10.1742 37.4042 10.3482 37.5493 10.5488C37.8395 10.9504 37.9991 11.4846 38 11.9748C38.0014 12.7655 37.6918 13.5645 37.1191 14.127C36.6256 14.6116 36.0144 14.8881 35.3272 14.9767C34.5643 15.0749 33.7658 14.8561 33.1635 14.3867C32.5447 13.9045 32.1031 13.1501 32.0183 12.3743C31.9413 11.6697 32.1043 10.9663 32.5684 10.4139L32.9383 10.0363L32.9409 11.4606C32.9393 11.7481 32.9146 12.0586 32.9552 12.3431L32.9626 12.3904C33.0247 12.8099 33.202 13.156 33.4992 13.4623C33.8726 13.8473 34.3953 14.0991 34.942 14.1022C35.4987 14.1053 36.0781 13.8654 36.4689 13.4783C36.8188 13.1317 37.0357 12.6325 37.0651 12.1475C37.0806 11.8913 37.0438 11.6321 37.0408 11.3755L37.042 9.99976Z" fill="white"/>
<path d="M48.0184 9.99976C48.4725 10.3614 48.783 10.7848 48.9187 11.3484C49.0942 12.0772 48.9866 12.9227 48.5845 13.5669C48.1726 14.2267 47.492 14.7399 46.7146 14.9192C45.9383 15.0983 45.1232 14.9787 44.4482 14.5607C43.7419 14.1234 43.2436 13.4212 43.0691 12.6247C42.9861 12.2456 42.9753 11.8529 43.0507 11.472L43.0611 11.4161C43.1546 10.9294 43.4932 10.3212 43.9299 10.0475L43.9608 10.0289C44.01 10.4946 43.9847 11.0128 43.971 11.4821C43.9496 12.2162 43.9404 12.8544 44.4822 13.4323C44.8454 13.8198 45.3506 14.0406 45.8872 14.0627C46.4435 14.0857 46.9572 13.9342 47.371 13.5624C47.7023 13.2646 47.9827 12.8487 48.0296 12.4021C48.0616 12.0966 48.023 11.7829 48.0175 11.4763L48.0184 9.99976Z" fill="white"/>
<path d="M12.0183 8.50378L12.0171 7.40314C12.0201 6.69799 12.0279 6.1184 12.5643 5.5879C12.9571 5.1994 13.4606 4.99535 14.0187 4.99983C14.5661 5.00422 15.0626 5.21626 15.4407 5.60259C16.0146 6.18898 15.9891 6.81552 15.99 7.57537C15.9903 7.87589 16.0085 8.18611 15.9896 8.485L15.9872 8.49977L15.9954 10.0951L15.9915 11.5212C15.9909 11.7832 16.0151 12.0744 15.9845 12.333C15.9372 12.7336 15.7209 13.1451 15.4331 13.4311C15.086 13.7763 14.6013 13.995 14.1029 13.9996C13.5321 14.0049 13.0472 13.837 12.6365 13.4396C12.0187 12.8418 12.0306 12.2105 12.0219 11.4152L12.0081 10.1148C11.9907 9.95361 12.0068 9.77168 12.0069 9.60797L12.0183 8.50378Z" fill="url(#paint1_linear_1_199)"/>
<path d="M44.0384 8.50707L44.0363 7.45237C44.0364 7.20897 44.0195 6.95073 44.0478 6.70912C44.0961 6.2957 44.3198 5.87707 44.613 5.58276C44.9852 5.2093 45.522 4.99674 46.0512 4.99979C46.5926 5.00291 47.0668 5.24302 47.4407 5.61946C47.9316 6.11371 47.9557 6.65822 47.9587 7.31061L47.9648 8.50909C47.9895 8.98618 48.0257 9.5149 47.9728 9.98935L47.9719 11.4459C47.9772 11.7484 48.0148 12.0579 47.9837 12.3593C47.9381 12.7999 47.6654 13.2102 47.3432 13.5039C46.9409 13.8708 46.4413 14.0202 45.9004 13.9975C45.3786 13.9757 44.8874 13.7578 44.5342 13.3757C44.0074 12.8055 44.0163 12.1759 44.0372 11.4517C44.0504 10.9888 44.0751 10.4776 44.0273 10.0181L44.0248 9.98395C43.9784 9.50231 44.0055 8.99016 44.0384 8.50707Z" fill="url(#paint2_linear_1_199)"/>
<path d="M23.0106 8.46984L23.0102 7.46334C23.0106 7.22044 22.9907 6.95609 23.0238 6.71567C23.083 6.28623 23.2947 5.87952 23.5992 5.57138C23.9563 5.21016 24.4662 5.004 24.975 4.99983C25.5282 4.99529 26.0241 5.2069 26.411 5.59443C26.6919 5.87587 26.9266 6.26854 26.9667 6.6695C26.9907 6.90925 26.9754 7.16399 26.9764 7.40497L26.9804 8.4763L26.9992 9.4586C26.9984 9.6365 27.008 9.82153 26.9768 9.99707L26.9722 11.4123C26.9741 11.6861 27.0016 11.9604 26.9753 12.2335C26.9289 12.7144 26.6895 13.1196 26.3422 13.4497C25.9589 13.8141 25.4655 14.0132 24.9326 13.9991C24.3643 13.9841 23.8576 13.7509 23.4715 13.3382C22.9645 12.7962 23 12.1453 23.0008 11.4558L23.0023 10.0164L23.0106 8.46984Z" fill="url(#paint3_linear_1_199)"/>
<path d="M33.0456 8.4894L33.0314 7.3427C33.03 7.06281 33.0101 6.76941 33.0798 6.49596C33.1652 6.16113 33.3745 5.83428 33.6106 5.58426C33.9423 5.233 34.461 5.00654 34.9432 4.99995C35.4914 4.99246 36.0062 5.20003 36.3941 5.58634C36.9252 6.11517 36.9445 6.70421 36.9454 7.41053L36.9446 8.49276L36.9741 9.97731L36.9729 11.3263C36.9759 11.5778 37.0113 11.832 36.9963 12.0832C36.968 12.5587 36.7591 13.0481 36.4218 13.388C36.0453 13.7675 35.4869 14.0028 34.9505 13.9997C34.4237 13.9967 33.9201 13.7498 33.5602 13.3723C33.2739 13.072 33.103 12.7326 33.0431 12.3213L33.036 12.2749C32.9969 11.996 33.0207 11.6915 33.0222 11.4096L33.0197 10.0132C33.0213 9.51602 32.9602 8.98029 33.0456 8.4894Z" fill="url(#paint4_linear_1_199)"/>
<path d="M4.01264 22.0061L55.9823 21.9998L55.9968 42.1506L56 48.1599L55.9965 49.806C55.996 50.1598 56.0154 50.5308 55.9645 50.881C55.8472 51.6871 55.4702 52.3515 54.9114 52.9454L54.8877 52.969C54.3386 53.4949 53.6099 53.8619 52.8432 53.9543C52.3361 54.0154 51.7935 53.9812 51.2819 53.9818L48.4701 53.9846L39.2078 53.9942L10.0486 53.9998L8.41176 53.9957C7.91025 53.9937 7.40539 54.0062 6.91428 53.8907C6.26699 53.7385 5.62436 53.3693 5.15859 52.9093C4.56456 52.3225 4.15198 51.5695 4.0315 50.7499C3.98236 50.4156 4.0052 50.0631 4.00594 49.7255L4.00646 48.0723L4.00739 42.2723L4.01264 22.0061Z" fill="url(#paint5_linear_1_199)"/>
<path d="M7.00672 23.9998L52.9733 24.0032L52.9854 41.7129L52.9863 46.9059L52.992 48.2738C52.995 48.5839 53.0162 48.9094 52.9741 49.2168C52.9166 49.6367 52.6662 50.0258 52.3916 50.3433C52.0579 50.6484 51.7053 50.8627 51.2486 50.9493C50.8187 51.0308 50.3344 50.9892 49.8964 50.9889L47.5434 50.9871L38.8587 50.9908L18.9588 50.9926L12.3244 50.9924L8.92525 50.9853C8.55075 50.9703 8.21952 50.8596 7.91187 50.6544C7.50494 50.383 7.12055 49.9007 7.0363 49.4171L7.02914 49.3727C6.98326 49.103 7.00503 48.8123 7.00602 48.5387L7.00789 47.1517L7.01155 42.0533L7.00672 23.9998Z" fill="white"/>
<path d="M43.6604 27.0163C44.0338 26.9878 44.4196 27.0073 44.795 27.007L46.8538 27.0066L47.9389 27.0058C48.0817 27.0058 48.2816 26.9828 48.4182 27.0264C48.643 27.098 48.8097 27.2355 48.913 27.4471C48.9561 27.5355 48.9838 27.6417 48.9876 27.7399L48.9799 30.5283L48.9898 31.6681C48.9931 31.8801 49.0096 32.1038 48.992 32.315C48.9875 32.3687 48.9736 32.4179 48.9525 32.4678L48.9353 32.5045L48.9192 32.5406C48.8146 32.7627 48.6072 32.8846 48.3829 32.9608C48.1459 33.0186 47.8679 32.9926 47.624 32.9921L46.4298 32.9917L44.7672 32.9945C44.463 32.9948 44.1499 33.0097 43.8466 32.9881C43.7296 32.9798 43.6191 32.9511 43.5129 32.9017C43.3009 32.8029 43.1443 32.6263 43.066 32.4074C43.0392 32.3327 43.0221 32.2539 43.0178 32.1746C42.9767 31.4166 43.02 30.6325 43.0184 29.8714L43.0156 28.5183C43.0152 28.2704 43.0015 28.0137 43.0234 27.767C43.0335 27.6529 43.069 27.5367 43.1224 27.4352C43.2405 27.211 43.425 27.0915 43.6604 27.0163Z" fill="url(#paint6_linear_1_199)"/>
<path d="M43.8161 35.0095C44.0721 34.9907 44.3386 35.0048 44.5956 35.0052L46.0036 35.0078L47.4199 35.0115C47.6756 35.0124 47.9379 35.0002 48.1925 35.0208C48.3032 35.0297 48.3889 35.0542 48.4876 35.1038C48.726 35.2235 48.8729 35.4153 48.9544 35.6644C49.0286 35.8917 48.9904 36.1842 48.9885 36.4228L48.9879 37.5088L48.9911 39.2847C48.9913 39.5867 49.007 39.8974 48.9894 40.1985C48.9827 40.3126 48.9388 40.4295 48.8831 40.5287C48.7388 40.7856 48.4884 40.9279 48.2095 40.9998L45.0926 40.9844C44.6889 40.9858 44.2685 41.01 43.8668 40.9807C43.7416 40.9715 43.6348 40.9454 43.523 40.8875C43.2665 40.7548 43.1111 40.537 43.0359 40.2658C42.9782 40.0574 43.007 39.7991 43.0085 39.5844L43.0093 38.5351L43.0096 36.7916C43.0099 36.4972 42.9925 36.1912 43.0161 35.8979C43.0286 35.7419 43.0645 35.6031 43.1461 35.4674C43.3023 35.2076 43.5298 35.0815 43.8161 35.0095Z" fill="url(#paint7_linear_1_199)"/>
<path d="M44 35.9998L48 36.0206L47.9974 39.9938L44.0022 39.9998L44 35.9998Z" fill="white"/>
<path d="M10.7501 27.0208C11.0226 26.9958 11.3096 27.0111 11.5839 27.0106L13.0448 27.0077L15.0018 27.0045C15.3574 27.004 15.7229 26.9901 16.0776 27.0123C16.1762 27.0185 16.2705 27.0416 16.3611 27.076C16.6141 27.1719 16.8343 27.3487 16.9265 27.5796C17.0457 27.8783 16.9839 28.3335 16.9845 28.6547L16.9854 30.5312L16.9855 31.641C16.985 31.8283 17.002 32.0305 16.979 32.2155C16.9685 32.3002 16.9232 32.3881 16.8803 32.4635C16.7366 32.7162 16.4863 32.8703 16.1897 32.963C15.9268 33.0116 15.6262 32.9844 15.3568 32.9842L13.8557 32.9838L11.8608 32.9848C11.5326 32.9855 11.0668 33.0343 10.7554 32.9517C10.4828 32.8794 10.2375 32.7205 10.1073 32.4966C10.0501 32.3982 10.0151 32.2811 10.0063 32.1714C9.9904 31.9751 10.0094 31.7677 10.0114 31.5702L10.0158 30.4467L10.0008 27.8506C10.0041 27.7565 10.0229 27.6604 10.0613 27.5724C10.1841 27.2907 10.4475 27.1356 10.7501 27.0208Z" fill="url(#paint8_linear_1_199)"/>
<path d="M31.0776 27.011L32.221 27.0047C32.5831 27.0031 32.9614 26.968 33.2966 27.1114C33.5917 27.2377 33.8254 27.4792 33.9246 27.7497L33.9404 27.795C34.0416 28.0775 33.9831 28.4924 33.984 28.7908L33.9883 30.7024L33.9886 31.6442C33.9885 31.7929 34.0029 31.9538 33.984 32.1014C33.9689 32.2185 33.9216 32.3409 33.8609 32.4466C33.721 32.6899 33.464 32.8602 33.1684 32.9414L33.1162 32.955C32.8103 33.0367 32.368 32.9817 32.0404 32.981L29.9168 32.9769L28.8438 32.9807C28.3244 32.9819 27.7268 33.0553 27.3278 32.6989C27.1058 32.5006 27.0106 32.2489 27.0076 31.9769L27.0051 29.1685L27.0034 28.2528C27.0034 28.0893 26.989 27.9141 27.0196 27.7523C27.0547 27.5662 27.1461 27.4145 27.3029 27.2831C27.4561 27.1547 27.6685 27.0645 27.8782 27.0319C28.1827 26.9846 28.552 27.0202 28.8652 27.0196L31.0776 27.011Z" fill="url(#paint9_linear_1_199)"/>
<path d="M31.6278 28.0105L33 27.9998L32.9981 31.9964L29.3681 31.9949L28.4827 31.9975C28.3978 31.997 28.2635 32.0117 28.1925 31.9718C28.0982 31.9188 28.0398 31.8484 28.026 31.7533C27.988 31.494 28.023 31.1981 28.023 30.9342C28.023 30.5847 27.967 28.3093 28.0298 28.1859C28.0391 28.1674 28.0851 28.1206 28.0975 28.1092C28.1469 28.0639 28.2345 28.0278 28.3058 28.0205C28.6535 27.9849 29.0559 28.0169 29.4087 28.0173L31.6278 28.0105Z" fill="white"/>
<path d="M48.02 42.9998C48.2886 43.0105 48.4996 43.0525 48.7019 43.2798C48.8999 43.5024 48.9921 43.7904 48.9966 44.1041L48.9977 47.4391L48.9968 48.4525C48.9964 48.6511 49.0111 48.8685 48.9806 49.064C48.9433 49.3038 48.8253 49.5303 48.6745 49.7013C48.5399 49.8539 48.3616 49.9424 48.1768 49.9809C48.0315 50.0113 47.8659 49.9958 47.7179 49.9959L46.8799 49.9948H43.9762C43.7246 49.9657 43.5184 49.9008 43.326 49.7026C43.1163 49.4866 43.0106 49.1987 43.0047 48.8792L43.0019 45.5148L43.0032 44.5143C43.0035 44.3234 42.989 44.1175 43.0194 43.9293C43.0548 43.7099 43.1471 43.5071 43.2867 43.3501C43.4133 43.2077 43.5694 43.0745 43.7464 43.0297C43.9025 42.9901 44.0783 43.0052 44.238 43.0068L45.0389 43.0111L48.02 42.9998Z" fill="url(#paint10_linear_1_199)"/>
<path d="M22.5013 27.0254L24.3385 27.0134C24.5982 27.0119 24.9152 26.9771 25.1667 27.0248C25.3529 27.0601 25.5359 27.1483 25.6714 27.2662C25.8987 27.4638 25.9911 27.7006 25.9927 27.9761L25.9958 31.0215L25.9949 31.8319C25.9948 31.9571 26.0116 32.1024 25.9848 32.2251C25.9426 32.418 25.836 32.5848 25.6787 32.7221C25.5261 32.8554 25.3491 32.9315 25.139 32.9676C24.8714 33.0136 24.5554 32.9862 24.2819 32.9861L22.5615 32.9844L20.8511 32.9895C20.5026 32.9901 20.0751 33.0321 19.7421 32.9415C19.455 32.8632 19.2079 32.6664 19.0863 32.4239C18.9507 32.1535 19.0151 31.7277 19.0163 31.4305L19.0247 29.8117C19.0253 29.1699 18.9772 28.5033 19.0303 27.8655C19.0394 27.7554 19.0696 27.6546 19.1219 27.5541C19.2295 27.3475 19.4724 27.1686 19.7136 27.0979L19.7595 27.0852C20.0627 26.9967 20.4572 27.0409 20.7772 27.0389L22.5013 27.0254Z" fill="url(#paint11_linear_1_199)"/>
<path d="M36.1064 27.0155L39.6594 27.0064L40.704 27.0046C40.8904 27.0042 41.088 26.9911 41.2726 27.0098C41.4059 27.0234 41.5464 27.0902 41.6498 27.1628C41.8391 27.2958 41.9612 27.5005 41.9835 27.712C42.0115 27.9779 41.9896 28.262 41.9903 28.5305L41.9926 30.1028L41.9932 31.5156C41.9933 31.7581 42.0143 32.0207 41.982 32.2608C41.9607 32.4195 41.8495 32.5977 41.7284 32.7148C41.5101 32.926 41.2422 32.9865 40.9299 32.9998L35.9662 32.988C35.6896 32.9639 35.4425 32.8345 35.2731 32.6437C35.1541 32.5097 35.0669 32.3481 35.035 32.1807C34.9729 31.8547 35.0121 31.4729 35.0134 31.1403L35.0214 29.1608L35.0154 28.4425C35.0108 28.2679 34.9909 28.0846 35.0236 27.9116L35.0315 27.8736C35.0606 27.72 35.1224 27.5933 35.2263 27.4655C35.4389 27.2036 35.7535 27.0733 36.1064 27.0155Z" fill="url(#paint12_linear_1_199)"/>
<path d="M10.8281 35.0261C11.7741 34.9722 12.755 35.0176 13.7045 35.0183L15.2758 35.0174C15.5883 35.0175 15.9838 34.9789 16.2805 35.0676C16.5595 35.1511 16.8002 35.3479 16.9183 35.58C16.9602 35.6623 16.9865 35.7483 16.991 35.8382L16.9935 38.6445L16.9936 39.7096C16.9936 39.9 17.0265 40.138 16.9429 40.316L16.9235 40.354L16.8517 40.4859C16.683 40.7481 16.4198 40.8806 16.0986 40.9668C15.8359 40.997 15.5587 40.9817 15.2937 40.9803L13.9302 40.9753C12.9998 40.9747 12.0476 41.0244 11.1199 40.9838C10.9529 40.9765 10.7856 40.9632 10.6321 40.9021C10.3733 40.7989 10.1655 40.6166 10.0778 40.3806C10.0143 40.2095 10.026 40.042 10.0266 39.865L10.0292 39.1067L10.0258 37.0536C10.0245 36.6624 9.97786 36.2444 10.0132 35.8571C10.0256 35.7216 10.0653 35.5886 10.1406 35.4685C10.293 35.2253 10.5352 35.1068 10.8281 35.0261Z" fill="url(#paint13_linear_1_199)"/>
<path d="M27.8629 35.0163C28.572 34.9796 29.3046 35.0155 30.0169 35.0152L32.0645 35.0146C32.4288 35.0147 32.9239 34.9655 33.2708 35.0595C33.523 35.1278 33.7358 35.295 33.8556 35.497C33.9167 35.6001 33.9604 35.7178 33.9692 35.8338C34.0074 36.3369 33.9696 36.8624 33.9715 37.3683L33.9786 39.3403C33.9795 39.6255 34.0454 40.0612 33.9413 40.3299L33.9259 40.3665L33.877 40.4753C33.7304 40.7348 33.4636 40.8878 33.1529 40.9727C32.9182 41.01 32.6555 40.9855 32.4164 40.984L31.2366 40.9859L29.0112 40.9907C28.6591 40.9912 28.2914 41.012 27.9419 40.9889C27.8053 40.9799 27.662 40.9371 27.5423 40.8807C27.2929 40.7633 27.1055 40.5692 27.0345 40.3312C26.979 40.1455 27.0072 39.9117 27.0067 39.7207L27.0081 38.3947L27.0097 36.7358C27.0103 36.4472 26.9917 36.1464 27.019 35.8591C27.0335 35.7072 27.074 35.5588 27.1668 35.4274C27.3282 35.1985 27.5669 35.0756 27.8629 35.0163Z" fill="url(#paint14_linear_1_199)"/>
<path d="M35.853 35.0198C36.4449 34.9757 37.074 35.0181 37.6709 35.0185L39.8611 35.0189L40.6709 35.0199C40.8835 35.0204 41.1212 35.0138 41.3215 35.0827C41.5886 35.1745 41.7995 35.3606 41.9104 35.5891C41.9543 35.6793 41.9843 35.7806 41.9926 35.8784C42.0114 36.1001 41.9889 36.3334 41.9855 36.5562L41.9802 37.7329L41.982 39.345C41.9823 39.6303 42.0003 39.9254 41.9777 40.2095C41.9714 40.2879 41.9413 40.3675 41.9039 40.4388C41.7504 40.7304 41.4768 40.8798 41.1399 40.9816C40.9038 41.0141 40.6486 40.9937 40.4088 40.9905L39.2314 40.9809L36.911 40.9807L36.3474 40.9852C36.1692 40.9913 35.9897 41.0135 35.8173 40.962C35.4953 40.8656 35.2493 40.6786 35.1127 40.4061C35.0616 40.3042 35.0313 40.1965 35.0213 40.0857C34.9703 39.5211 35.0264 38.9244 35.0291 38.3557L35.043 35.819C35.0476 35.7271 35.0777 35.6347 35.1214 35.551C35.2641 35.2778 35.5422 35.1212 35.853 35.0198Z" fill="url(#paint15_linear_1_199)"/>
<path d="M27.018 48.2561L27.0115 47.2132L27.0082 45.4454L27.0066 44.3326C27.0063 44.1363 26.9858 43.9193 27.0186 43.7256C27.0432 43.5807 27.1441 43.4291 27.2568 43.3214C27.4543 43.1326 27.6874 43.0176 27.9884 43.0048L31.0576 43.0015L32.344 43.0029C32.5842 43.0033 32.8427 42.9904 33.081 43.0141C33.2843 43.0343 33.4976 43.1198 33.6456 43.238C33.8034 43.364 33.9286 43.5334 33.9676 43.7163C34.0004 43.8697 33.9865 44.0377 33.9867 44.1935L33.9875 45.0138L34 48.0765C33.9508 48.3831 33.8574 48.6123 33.5513 48.8094C33.4156 48.8967 33.2269 48.9685 33.0568 48.9852C32.7708 49.0134 32.4558 48.992 32.1671 48.9918L30.3177 48.9899L28.7819 48.991C28.4954 48.9917 28.1698 49.0163 27.8895 48.9702C27.5999 48.9224 27.3151 48.7667 27.1576 48.5517C27.0922 48.4625 27.0493 48.3574 27.018 48.2561Z" fill="url(#paint16_linear_1_199)"/>
<path d="M11.1433 43.019L14.6309 43.024C15.1054 43.0246 15.6557 42.9618 16.12 43.036C16.2641 43.059 16.4159 43.1372 16.5329 43.2212C16.7458 43.3742 16.9435 43.6434 16.9814 43.9027C17.0177 44.1516 16.9897 44.4393 16.9896 44.692L16.9887 46.3131L16.9872 48.1557C16.9876 48.4695 17.0128 48.8093 16.9821 49.1201C16.9656 49.2858 16.8831 49.4569 16.7793 49.586C16.5491 49.8723 16.2402 49.955 15.8905 49.9914L12.4462 49.9967L11.4942 49.9967C11.3043 49.9966 11.1017 50.0111 10.9143 49.9777C10.7339 49.9455 10.556 49.8534 10.4197 49.7326C10.1715 49.5127 10.0281 49.257 10.0082 48.9225C9.98888 48.5975 10.0095 48.2642 10.0115 47.9385L10.0135 46.1322L10.0079 44.7752C10.0054 44.4876 9.98251 44.1822 10.0321 43.8979C10.0664 43.7011 10.1707 43.5068 10.309 43.3611C10.5613 43.0951 10.7919 43.0413 11.1433 43.019Z" fill="url(#paint17_linear_1_199)"/>
<path d="M11.1986 44.0226C11.3435 43.9875 11.5273 44.0034 11.6799 44.0031L12.6202 44.0019L15.6419 44.0053C15.796 44.0091 15.8472 44.0176 15.9546 44.1097C16.0395 44.4119 15.9792 44.812 15.9795 45.1293L15.9781 47.0539L15.9767 47.5699C15.9763 47.6843 15.9904 47.8165 15.9252 47.9216C15.8911 47.9767 15.8661 47.9695 15.7982 47.99L12.247 47.9865C12.033 47.9866 11.3103 48.0264 11.1739 47.9676C11.1373 47.9518 11.1093 47.9256 11.0769 47.9046C11.0159 47.7892 11.0317 47.6675 11.0318 47.5443L11.0325 46.9646L11.0286 45.007C11.0278 44.7609 10.9719 44.4546 11.0186 44.2172C11.0387 44.1147 11.0999 44.0771 11.1986 44.0226Z" fill="white"/>
<path d="M35.8724 43.0342C36.6445 42.9657 37.4617 43.0207 38.2387 43.02L40.0977 43.0191C40.4461 43.0191 40.9046 42.9633 41.2317 43.079C41.5272 43.1836 41.7739 43.417 41.9027 43.7C41.9519 43.8078 41.9805 43.9212 41.9891 44.039C42.0104 44.3308 41.9939 44.6335 41.9941 44.9265L41.9949 46.6185L41.9941 48.1257C41.9938 48.4092 42.0098 48.7013 41.984 48.9834C41.9728 49.1075 41.9441 49.2232 41.8951 49.338C41.7499 49.678 41.4729 49.8401 41.1451 49.9728C40.8903 50.0112 40.6192 49.9933 40.3615 49.9938L39.0447 49.9948L37.0901 49.9947C36.7471 49.9941 36.394 50.0096 36.052 49.9891C35.9457 49.9827 35.8331 49.9573 35.7343 49.9178C35.4534 49.8057 35.1975 49.5452 35.09 49.2649C34.9606 48.9274 35.0214 48.4497 35.0209 48.0877L35.0193 46.3873C35.0192 45.6137 34.9724 44.8066 35.0249 44.0365C35.034 43.9018 35.0771 43.768 35.1359 43.6469C35.296 43.3177 35.5347 43.1479 35.8724 43.0342Z" fill="url(#paint18_linear_1_199)"/>
<path d="M19.9173 35.0091C20.2375 34.991 20.5687 35.0048 20.8902 35.005L22.7001 35.0063L24.2273 35.0086C24.4906 35.0091 24.7691 34.9936 25.0302 35.0137C25.1879 35.0258 25.3389 35.0613 25.4763 35.1315C25.7195 35.2558 25.9058 35.4626 25.9686 35.7052C26.0212 35.908 25.9862 36.186 25.9859 36.396L25.9857 37.8314L25.9882 39.4388C25.9886 39.6969 26.0185 39.9839 25.9815 40.2387C25.9651 40.3518 25.8915 40.4769 25.8222 40.5718C25.6383 40.8238 25.3738 40.9383 25.0507 40.9998L21.7138 40.9897L20.5524 40.9883C20.2637 40.9878 19.9408 41.015 19.6746 40.901C19.3745 40.7725 19.1718 40.5712 19.0664 40.2956C18.962 40.0229 19.0236 39.5836 19.0233 39.2917L19.0219 37.5678C19.0217 37.0038 18.9734 36.407 19.0209 35.8462C19.0313 35.7235 19.0662 35.6184 19.133 35.51C19.3002 35.2382 19.591 35.0916 19.9173 35.0091Z" fill="url(#paint19_linear_1_199)"/>
<path d="M24.5372 43.0054C24.9602 42.9925 25.3325 42.9762 25.674 43.2762C25.8374 43.4198 25.9787 43.6669 25.9905 43.8858C26.0108 44.2669 25.9922 44.6602 25.9922 45.0428L25.9906 47.2992L25.9899 48.4687C25.9913 48.6701 26.0147 48.9014 25.9847 49.0999C25.9568 49.2853 25.8205 49.5285 25.6933 49.6616C25.5331 49.8294 25.3247 49.9224 25.0983 49.9604C24.6386 50.0375 24.0779 49.9775 23.6092 49.9778L20.4348 49.9831C20.0417 49.9885 19.6954 49.9826 19.3813 49.7073C19.1592 49.5126 19.0134 49.2138 19 48.9172L19.0026 45.8213L19.0072 44.6551C19.0085 44.4088 18.9924 44.1457 19.0342 43.9024C19.0692 43.6983 19.1795 43.5016 19.3246 43.3554C19.4666 43.2123 19.6499 43.0746 19.8505 43.0308C20.0336 42.9907 20.2445 43.0079 20.4313 43.0082L21.4432 43.0119L24.5372 43.0054Z" fill="url(#paint20_linear_1_199)"/>
</g>
<defs>
<linearGradient id="paint0_linear_1_199" x1="7.54149" y1="13.0105" x2="55.9999" y2="13.0105" gradientUnits="userSpaceOnUse">
<stop stop-color="#FF372A"/>
<stop offset="1" stop-color="#FF1514"/>
</linearGradient>
<linearGradient id="paint1_linear_1_199" x1="12.2724" y1="9.50579" x2="16" y2="9.50579" gradientUnits="userSpaceOnUse">
<stop stop-color="#FF372A"/>
<stop offset="1" stop-color="#FF1514"/>
</linearGradient>
<linearGradient id="paint2_linear_1_199" x1="44.2724" y1="9.50579" x2="48" y2="9.50579" gradientUnits="userSpaceOnUse">
<stop stop-color="#FF372A"/>
<stop offset="1" stop-color="#FF1514"/>
</linearGradient>
<linearGradient id="paint3_linear_1_199" x1="23.2724" y1="9.50579" x2="27" y2="9.50579" gradientUnits="userSpaceOnUse">
<stop stop-color="#FF372A"/>
<stop offset="1" stop-color="#FF1514"/>
</linearGradient>
<linearGradient id="paint4_linear_1_199" x1="33.2724" y1="9.50579" x2="37" y2="9.50579" gradientUnits="userSpaceOnUse">
<stop stop-color="#FF372A"/>
<stop offset="1" stop-color="#FF1514"/>
</linearGradient>
<linearGradient id="paint5_linear_1_199" x1="7.54149" y1="38.0212" x2="55.9999" y2="38.0212" gradientUnits="userSpaceOnUse">
<stop stop-color="#FF372A"/>
<stop offset="1" stop-color="#FF1514"/>
</linearGradient>
<linearGradient id="paint6_linear_1_199" x1="43.4086" y1="30.0038" x2="49" y2="30.0038" gradientUnits="userSpaceOnUse">
<stop stop-color="#FF372A"/>
<stop offset="1" stop-color="#FF1514"/>
</linearGradient>
<linearGradient id="paint7_linear_1_199" x1="43.4086" y1="38.0038" x2="49" y2="38.0038" gradientUnits="userSpaceOnUse">
<stop stop-color="#FF372A"/>
<stop offset="1" stop-color="#FF1514"/>
</linearGradient>
<linearGradient id="paint8_linear_1_199" x1="10.4767" y1="30.0038" x2="17" y2="30.0038" gradientUnits="userSpaceOnUse">
<stop stop-color="#FF372A"/>
<stop offset="1" stop-color="#FF1514"/>
</linearGradient>
<linearGradient id="paint9_linear_1_199" x1="27.4767" y1="30.0038" x2="34" y2="30.0038" gradientUnits="userSpaceOnUse">
<stop stop-color="#FF372A"/>
<stop offset="1" stop-color="#FF1514"/>
</linearGradient>
<linearGradient id="paint10_linear_1_199" x1="43.4086" y1="46.5044" x2="49" y2="46.5044" gradientUnits="userSpaceOnUse">
<stop stop-color="#FF372A"/>
<stop offset="1" stop-color="#FF1514"/>
</linearGradient>
<linearGradient id="paint11_linear_1_199" x1="19.4767" y1="30.0038" x2="26" y2="30.0038" gradientUnits="userSpaceOnUse">
<stop stop-color="#FF372A"/>
<stop offset="1" stop-color="#FF1514"/>
</linearGradient>
<linearGradient id="paint12_linear_1_199" x1="35.4767" y1="30.0038" x2="42" y2="30.0038" gradientUnits="userSpaceOnUse">
<stop stop-color="#FF372A"/>
<stop offset="1" stop-color="#FF1514"/>
</linearGradient>
<linearGradient id="paint13_linear_1_199" x1="10.4767" y1="38.0038" x2="17" y2="38.0038" gradientUnits="userSpaceOnUse">
<stop stop-color="#FF372A"/>
<stop offset="1" stop-color="#FF1514"/>
</linearGradient>
<linearGradient id="paint14_linear_1_199" x1="27.4767" y1="38.0038" x2="34" y2="38.0038" gradientUnits="userSpaceOnUse">
<stop stop-color="#FF372A"/>
<stop offset="1" stop-color="#FF1514"/>
</linearGradient>
<linearGradient id="paint15_linear_1_199" x1="35.4767" y1="38.0038" x2="42" y2="38.0038" gradientUnits="userSpaceOnUse">
<stop stop-color="#FF372A"/>
<stop offset="1" stop-color="#FF1514"/>
</linearGradient>
<linearGradient id="paint16_linear_1_199" x1="27.4767" y1="46.0038" x2="34" y2="46.0038" gradientUnits="userSpaceOnUse">
<stop stop-color="#FF372A"/>
<stop offset="1" stop-color="#FF1514"/>
</linearGradient>
<linearGradient id="paint17_linear_1_199" x1="10.4767" y1="46.5044" x2="17" y2="46.5044" gradientUnits="userSpaceOnUse">
<stop stop-color="#FF372A"/>
<stop offset="1" stop-color="#FF1514"/>
</linearGradient>
<linearGradient id="paint18_linear_1_199" x1="35.4767" y1="46.5044" x2="42" y2="46.5044" gradientUnits="userSpaceOnUse">
<stop stop-color="#FF372A"/>
<stop offset="1" stop-color="#FF1514"/>
</linearGradient>
<linearGradient id="paint19_linear_1_199" x1="19.4767" y1="38.0038" x2="26" y2="38.0038" gradientUnits="userSpaceOnUse">
<stop stop-color="#FF372A"/>
<stop offset="1" stop-color="#FF1514"/>
</linearGradient>
<linearGradient id="paint20_linear_1_199" x1="19.4767" y1="46.5044" x2="26" y2="46.5044" gradientUnits="userSpaceOnUse">
<stop stop-color="#FF372A"/>
<stop offset="1" stop-color="#FF1514"/>
</linearGradient>
<clipPath id="clip0_1_199">
<rect width="60" height="59" fill="white" transform="translate(0 -0.000244141)"/>
</clipPath>
</defs>
</svg>
