<svg width="60" height="59" viewBox="0 0 60 59" fill="none" xmlns="http://www.w3.org/2000/svg">
<path d="M45.1549 15.9998L46 16.8098L44.8639 17.9998L44 17.235L45.1549 15.9998Z" fill="url(#paint0_linear_1_234)"/>
<path d="M14 16.8657L14.5223 16.3485C14.6416 16.227 14.7566 16.091 14.903 15.9998L16 17.1878L15.0458 17.9998L14 16.8657Z" fill="url(#paint1_linear_1_234)"/>
<path d="M44.9471 16.3761C44.6792 16.1158 44.3596 15.8427 44.1776 15.5098C43.9761 15.1412 43.9526 14.6586 44.074 14.258C44.2197 13.7774 44.5433 13.3905 44.9818 13.1701C45.3649 12.9774 45.8207 12.9446 46.2241 13.09C46.4116 13.1576 46.5874 13.2554 46.7454 13.3786C47.0817 13.6406 47.3784 13.9893 47.6794 14.2941C48.0679 14.6875 48.6219 15.0978 48.856 15.6123C48.8945 15.6969 48.9189 15.7834 48.9433 15.873L48.958 15.9254C49.0643 16.3227 48.9585 16.7682 48.7567 17.1161C48.5031 17.5534 48.1304 17.8395 47.6454 17.9582C47.3898 18.0208 47.0979 18.0106 46.8452 17.9416L46.8011 17.9303C46.4556 17.8375 46.1844 17.6069 45.9409 17.349L44.9471 16.3761Z" fill="url(#paint2_linear_1_234)"/>
<path d="M14.0006 17.3476C13.7098 17.6403 13.3942 17.8762 12.985 17.9622L12.9396 17.9712C12.7744 18.0051 12.5803 18.0066 12.4126 17.9873C11.9974 17.9394 11.5611 17.6545 11.3118 17.3155C11.0797 17 10.9566 16.5164 11.014 16.1231L11.0213 16.0766C11.0464 15.9072 11.0861 15.7462 11.1584 15.5908C11.2871 15.314 11.4945 15.1176 11.7023 14.9031L12.3626 14.2273C12.6487 13.9358 12.9364 13.5997 13.2579 13.3514C13.4204 13.2259 13.6022 13.1389 13.7957 13.0744C14.2161 12.9341 14.6846 12.9996 15.0738 13.2039C15.4928 13.4239 15.8089 13.7811 15.941 14.2459C16.0653 14.6833 15.9887 15.1515 15.7542 15.5368C15.5903 15.8058 15.2953 16.0607 15.0675 16.2742C14.8945 16.3872 14.7587 16.5559 14.6177 16.7065L14.0006 17.3476Z" fill="url(#paint3_linear_1_234)"/>
<path d="M26 6.97748C26.155 6.03321 26.7671 5.2057 27.588 4.64984C28.499 4.03291 29.7512 3.90115 30.8377 4.06329C31.888 4.22002 32.775 4.76108 33.3895 5.56022C33.7133 5.98126 33.9201 6.48828 34 6.99976L26 6.97748Z" fill="url(#paint4_linear_1_234)"/>
<path d="M25.8568 6.99976L34.0575 7.02246L34.0919 7.02454L34.984 7.03186C34.9788 7.22608 34.962 7.42709 34.9808 7.62024C35.016 7.98075 34.9921 8.36214 34.9917 8.72447C34.9915 8.85384 35.0207 9.05725 34.9543 9.17034L34.9644 10.318L32.98 10.3221L32.9653 10.6142L32.9592 11.9775C31.5123 11.7837 29.9884 11.7336 28.5315 11.8296C27.9855 11.8656 27.4349 11.9792 26.8927 11.9998L26.8923 10.3172L26.8899 9.17012L25.0185 9.15062L25 7.6258C25.0421 7.43531 25.0143 7.19638 25.0154 6.99992L25.8568 6.99976Z" fill="url(#paint5_linear_1_234)"/>
<path d="M27 10.0141L33 9.99976L32.997 10.9998L27.0025 10.9957L27 10.0141Z" fill="url(#paint6_linear_1_234)"/>
<path d="M27 10.9998L32.9909 11.0053C32.9905 11.1184 32.9813 11.2415 33 11.3528L32.9939 12.9733C31.5644 12.743 30.0589 12.6834 28.6194 12.7975C28.08 12.8403 27.5361 12.9753 27.0003 12.9998L27 10.9998Z" fill="url(#paint7_linear_1_234)"/>
<path d="M27.3568 12.2364C27.9094 12.214 28.4705 12.0905 29.0269 12.0513C30.5118 11.9469 32.0648 12.0014 33.5394 12.2121C33.6539 12.2639 33.7998 12.267 33.9236 12.2866L34.4898 12.3884C35.0734 12.5011 35.6667 12.6279 36.238 12.7914C38.3548 13.397 40.443 14.3411 42.2871 15.5332C42.9431 15.9572 43.5518 16.4252 44.1688 16.9014L45.1963 17.7952C47.9439 20.3502 49.9997 23.5502 51.0844 27.1267C51.6367 28.9482 51.926 30.86 51.9874 32.758C52.0778 35.5485 51.6832 38.3533 50.7131 40.9823C50.2596 42.2113 49.6708 43.3984 49.0042 44.5275C48.2291 45.8402 47.3198 47.0985 46.2592 48.2039C44.868 49.6539 43.2672 50.9791 41.5317 52.0102C38.327 53.9143 34.6168 54.9101 30.8878 54.9946C25.3746 55.1194 19.7928 52.9782 15.807 49.2137C15.2449 48.6829 14.6832 48.1281 14.1806 47.5425C11.006 43.8443 9.10849 39.0935 9 34.2371L9.02007 32.9935C9.03455 32.0833 9.06087 31.2009 9.18589 30.2961C9.78831 25.9371 11.803 21.7867 14.8894 18.6078L15.6554 17.8416L16.8012 16.8483C19.8193 14.4133 23.4635 12.8007 27.3228 12.244L27.3568 12.2364Z" fill="url(#paint8_linear_1_234)"/>
<path d="M29.0607 16.0097C33.5026 15.8493 37.9108 17.6338 41.1875 20.5889C42.0217 21.3412 42.7582 22.1907 43.4289 23.0905C45.4687 25.8271 46.7983 29.1419 46.972 32.5717C47.0295 33.7082 47.0042 34.8643 46.8432 35.9922C46.3659 39.3361 44.8172 42.6161 42.5481 45.1187C40.0124 47.9153 36.6643 49.8684 32.9624 50.6397C31.9843 50.8436 31.0051 50.9444 30.0085 50.9929C25.4236 51.1219 20.9821 49.4269 17.6045 46.3295C14.9743 43.9175 13.1096 40.593 12.3698 37.1063C12.1588 36.112 12.0575 35.1202 12.0149 34.106C11.8199 29.4672 13.5487 24.9935 16.6872 21.5965C18.9638 19.1325 21.9777 17.3452 25.2303 16.5297C26.4856 16.2151 27.7697 16.0607 29.0607 16.0097Z" fill="white"/>
<path d="M29.4967 48.9971C27.3333 49.0392 25.0496 48.5758 23.0676 47.7432C19.0057 46.0367 15.7751 42.8666 14.1431 38.8608C12.8206 35.6148 12.6436 31.9699 13.6227 28.6137C13.8058 27.9861 14 27.3805 14.2684 26.7818C14.5987 26.0448 14.9646 25.317 15.3979 24.6314C17.2528 21.6961 20.0491 19.3986 23.3538 18.1438C26.6067 16.9087 30.1545 16.6447 33.5452 17.4934C34.4519 17.7204 35.3483 18.0449 36.2064 18.4085C37.0869 18.8209 37.9349 19.2579 38.7434 19.7941C41.724 21.7708 43.9319 24.7215 45.1162 28.015C46.5039 31.8744 46.2513 36.2038 44.4017 39.8826C43.0059 42.6586 40.7451 45.0539 38.0226 46.6533C36.9158 47.3035 35.7148 47.8219 34.4899 48.2234C32.8991 48.7448 31.1682 48.9543 29.4967 48.9971Z" fill="url(#paint9_linear_1_234)"/>
<path d="M40.3607 39.0143C40.4544 38.9979 40.5553 38.9898 40.6469 39.0208C40.7802 39.0658 40.901 39.1758 40.9563 39.3068C41.0082 39.4297 41.0178 39.5707 40.9637 39.695C40.8931 39.8573 40.7724 39.9256 40.6193 39.9912C40.5313 39.9966 40.4271 40.0118 40.3426 39.9813C40.2155 39.9353 40.1097 39.8363 40.0515 39.7136C39.9895 39.583 39.9821 39.4411 40.0367 39.3061C40.0991 39.1521 40.2187 39.0798 40.3607 39.0143Z" fill="#2F201C"/>
<path d="M35.4862 42.9998C35.576 43.0071 35.6586 43.0135 35.7397 43.0551C35.8577 43.1155 35.9418 43.2103 35.9794 43.3369C36.0224 43.481 35.9965 43.6398 35.9166 43.766C35.8241 43.9119 35.6806 43.9613 35.5191 43.9998C35.4041 43.9805 35.3162 43.9625 35.2181 43.8953C35.105 43.8179 35.0254 43.6898 35.0043 43.5561C34.9848 43.4324 35.0335 43.2768 35.1126 43.1798C35.2106 43.0595 35.3362 43.0203 35.4862 42.9998Z" fill="#2F201C"/>
<path d="M40.4199 27.0024C40.4971 26.9974 40.5768 26.9975 40.6515 27.0206C40.7872 27.0625 40.9057 27.178 40.9615 27.3081C41.0151 27.4329 41.0113 27.5527 40.959 27.6768C40.8869 27.8477 40.759 27.9296 40.5967 27.9976C40.506 28.0041 40.409 27.9971 40.3237 27.963C40.1895 27.9093 40.0652 27.778 40.0193 27.6391C39.9769 27.5106 40.0086 27.3572 40.0727 27.242C40.1518 27.0999 40.2693 27.0434 40.4199 27.0024Z" fill="#2F201C"/>
<path d="M35.4341 21.9998C35.5302 22.0065 35.6171 22.011 35.7067 22.0491C35.826 22.0998 35.9214 22.185 35.9687 22.3102C36.014 22.4302 36.0098 22.5779 35.9579 22.6953C35.8795 22.8723 35.7505 22.9336 35.583 22.9974C35.4465 23.0047 35.3326 22.9994 35.2133 22.92C35.1049 22.8477 35.0251 22.7272 35.0065 22.5953C34.9863 22.4511 35.012 22.2983 35.0988 22.1805C35.1879 22.0597 35.2936 22.0234 35.4341 21.9998Z" fill="#2F201C"/>
<path d="M30.0053 45.0129C30.1727 44.969 30.4196 45.0409 30.5626 45.1429C30.7795 45.2978 30.941 45.5495 30.99 45.832L31 45.9036L30.9868 47.9012C30.932 48.2366 30.858 48.5735 30.5845 48.7767C30.4042 48.9106 30.2128 48.9745 30 48.9998L30.0053 45.0129Z" fill="url(#paint10_linear_1_234)"/>
<path d="M31 19.9326L31.0047 18.9998C32.7266 19.095 34.3968 19.4158 36 19.9476C35.8341 20.3137 35.425 20.6184 35.2906 20.992L35.2752 20.9998C35.185 20.9061 34.9171 20.8396 34.7817 20.7932C33.5598 20.3744 32.297 20.1244 31 19.9326Z" fill="url(#paint11_linear_1_234)"/>
<path d="M35.7791 19.9998C36.3474 20.1852 36.9 20.5006 37.4167 20.7913C40.0349 22.2643 42.0863 24.4361 43.4212 27.0388C44.3326 28.8155 44.8107 30.765 44.9927 32.7279L43.8918 32.7298C43.7093 32.7298 43.501 32.711 43.3224 32.7396L43.3453 34.1635L45 34.1662C44.899 35.2064 44.7558 36.2346 44.4784 37.2472C43.9312 39.2447 42.8982 41.0834 41.53 42.6714C40.9319 43.3656 40.305 44.0173 39.5805 44.5928C38.8003 45.2125 37.9384 45.8099 37.0484 46.2774C35.7617 46.9534 34.3523 47.4272 32.9205 47.7259C32.298 47.8557 31.6372 47.9848 31 47.9998L31.017 45.7957C31.0822 46.039 31.0381 46.3577 31.0343 46.6105C31.4442 46.5822 31.8752 46.4717 32.278 46.3886C34.6208 45.9052 36.7178 44.8994 38.55 43.4268C40.7936 41.6236 42.3478 39.1504 43.0128 36.4194C43.1915 35.6853 43.2832 34.9306 43.3517 34.1805L42.0168 34.1852C41.8744 34.189 41.5376 34.1929 41.4319 34.106C41.2163 33.9288 41.1341 33.7571 41.1194 33.4839C41.108 33.2748 41.1717 33.0357 41.3326 32.8863C41.6294 32.6105 42.3106 32.7149 42.7029 32.7191C42.8861 32.6878 43.1361 32.72 43.3263 32.7215C43.2659 32.1397 43.2144 31.5563 43.1033 30.9806C42.7879 29.346 42.1167 27.7794 41.1956 26.3731C39.9528 24.4756 38.2028 22.946 36.222 21.7751C35.8931 21.5806 35.4428 21.264 35.0645 21.1814C35.1962 20.7595 35.5968 20.4155 35.7593 20.0023L35.7791 19.9998Z" fill="url(#paint12_linear_1_234)"/>
<path d="M36.9172 17.9998C37.8236 18.4178 38.6967 18.8606 39.5291 19.404C42.5977 21.4073 44.8708 24.3977 46.0901 27.7354C47.5188 31.6467 47.2587 36.0344 45.3545 39.7627C43.9175 42.5761 41.5899 45.0036 38.787 46.6244C37.6475 47.2834 36.4111 47.8087 35.1499 48.2157C33.5122 48.7441 31.7302 48.9563 30.0093 48.9998L30 48.706C30.277 48.6778 30.5263 48.6066 30.7608 48.4575C31.117 48.2311 31.2133 47.8558 31.2846 47.482C31.9291 47.467 32.5974 47.3366 33.227 47.2055C34.6752 46.9039 36.1006 46.4254 37.402 45.7429C38.3022 45.2707 39.1739 44.6675 39.963 44.0417C40.6959 43.4606 41.3299 42.8026 41.9349 42.1016C43.3187 40.4981 44.3634 38.6414 44.917 36.6244C45.1975 35.6019 45.3423 34.5637 45.4445 33.5133L43.7709 33.5106L43.7477 32.0728C43.9283 32.0438 44.139 32.0628 44.3236 32.0628L45.4371 32.0609C45.253 30.0788 44.7695 28.1103 43.8477 26.3162C42.4975 23.688 40.4226 21.4951 37.7745 20.0076C37.2519 19.7141 36.693 19.3956 36.1183 19.2084C36.1855 19.046 36.3059 18.885 36.4043 18.7379L36.9172 17.9998Z" fill="url(#paint13_linear_1_234)"/>
<path d="M31 24.9998L32.2044 25.1915L32.2339 25.1885L32.2751 25.2132C32.4444 25.3112 32.671 25.3567 32.855 25.428C33.1737 25.5515 33.4885 25.7012 33.7898 25.8643C35.6238 26.8569 37.0367 28.5781 37.6385 30.6242C38.2735 32.7834 38.0721 35.3007 37.033 37.2893C36.7013 37.9241 36.268 38.4696 35.799 38.9998L31.5462 34.819L31.6948 34.6462C32.0023 34.2743 32.181 33.7527 32.1733 33.2659C32.1666 32.8552 32.0727 32.4337 31.8595 32.0835C31.8049 31.9937 31.6817 31.8714 31.6487 31.7793C31.6211 31.7022 31.6244 31.5585 31.6157 31.4714L31.5382 30.6691L31.1919 26.8314L31 24.9998Z" fill="white"/>
<path d="M29.9892 44.8701L29.9545 44.8679C29.5892 44.8529 29.3099 44.9313 29.0427 45.1874C28.8827 45.3407 28.7615 45.5149 28.7041 45.7282C28.6257 46.0192 28.6724 46.3793 28.6773 46.6792L28.6838 47.9998C27.7212 47.9662 26.7634 47.7791 25.8402 47.5182C23.6825 46.9086 21.8039 45.8613 20.1042 44.4432C19.5897 44.0139 19.1363 43.5474 18.6903 43.0518C16.5013 40.6197 15.2543 37.6653 15 34.4407L16.8396 34.4438C17.1916 34.4434 17.6056 34.4803 17.9482 34.3947C18.1014 34.3564 18.2583 34.2678 18.3748 34.1649C18.5715 33.9912 18.6814 33.7242 18.6868 33.4693C18.6925 33.1957 18.5883 32.9472 18.3879 32.7532C18.2473 32.617 18.0541 32.5201 17.8578 32.4861C17.5552 32.4337 17.1768 32.4725 16.8666 32.4736L15.0014 32.4753C15.0922 31.2744 15.3447 30.0263 15.7369 28.8842C16.9975 25.2134 19.7035 22.1615 23.2695 20.4359C24.8002 19.6951 26.5218 19.1913 28.2288 19.045C28.4018 19.0302 28.6997 18.9685 28.8581 19.0198L28.8607 20.8872C28.8612 21.1554 28.8297 21.4658 28.8736 21.7284C28.8915 21.8357 28.9545 21.9427 29.0336 22.0184C29.2907 22.2645 29.7408 22.1943 30.074 22.1936C30.3742 22.1951 30.6892 22.247 30.9252 22.0282C31.0116 21.9482 31.0765 21.8624 31.105 21.7484C31.1477 21.5776 31.1215 21.3505 31.1207 21.1728L31.1211 20.0128C32.3748 20.2296 33.5955 20.5124 34.7766 20.986C34.9075 21.0384 35.1664 21.1137 35.2536 21.2195L32.3015 25.9597L32.271 25.9627L31.0215 25.7751L31.2205 27.5664L31.5798 31.3196L31.6602 32.1042C31.6692 32.1894 31.6658 32.3299 31.6945 32.4053C31.7287 32.4954 31.8565 32.615 31.9132 32.7028C32.1343 33.0453 32.2317 33.4575 32.2386 33.8591C32.2467 34.3352 32.0613 34.8454 31.7422 35.2091L31.5881 35.378L36 39.4667C34.5204 40.9151 32.6385 41.8068 30.5303 41.9485L30.1132 41.975C30.0765 41.9772 30.0215 41.9507 30.0029 41.9816C29.9715 42.0343 30.0045 42.4213 30.0047 42.5013L30.0102 44.6868C30.0103 44.752 30.0131 44.8075 29.9892 44.8701Z" fill="white"/>
<path d="M24.4077 22.0022C24.5124 21.996 24.6199 21.9987 24.7168 22.0454C24.8241 22.0971 24.9225 22.2099 24.9625 22.3237C25.0106 22.4606 25.0171 22.5803 24.9545 22.7124C24.8818 22.866 24.762 22.935 24.612 22.9936C24.4966 23.0056 24.3654 23.005 24.261 22.9463C24.1498 22.8839 24.0516 22.7574 24.0184 22.6323C23.9851 22.5071 23.9952 22.3601 24.0634 22.2481C24.1481 22.1089 24.2566 22.0447 24.4077 22.0022Z" fill="#2F201C"/>
<path d="M18.3976 39.0036C18.4927 38.9997 18.5922 38.9907 18.6821 39.0282C18.8055 39.0798 18.9142 39.172 18.9624 39.2987C19.0131 39.4322 19.0148 39.5777 18.9536 39.7078C18.8886 39.8459 18.7726 39.9424 18.6301 39.9943C18.5453 39.999 18.457 40.0076 18.3743 39.984C18.2363 39.9447 18.1224 39.8614 18.0549 39.7345C17.9967 39.625 17.9817 39.4584 18.0249 39.341C18.0919 39.1591 18.2281 39.0759 18.3976 39.0036Z" fill="#2F201C"/>
<path d="M24.4179 43.0003C24.5115 42.9972 24.5952 43.0067 24.6836 43.0398C24.8084 43.0867 24.914 43.1779 24.9654 43.3016C25.0237 43.4416 25.0044 43.5902 24.9373 43.7224C24.8604 43.8741 24.7352 43.945 24.5785 43.9988C24.496 44.0029 24.4021 43.9938 24.3249 43.9636C24.1956 43.913 24.0738 43.8114 24.0266 43.679C23.9803 43.5492 23.9965 43.3841 24.0588 43.2619C24.1367 43.1092 24.2595 43.0471 24.4179 43.0003Z" fill="#2F201C"/>
<path d="M18.3749 27.005C18.4838 26.9997 18.5825 26.9883 18.685 27.034C18.8079 27.0888 18.9192 27.1963 18.9672 27.3225C19.0066 27.4256 19.0155 27.5979 18.9661 27.7001C18.8917 27.8543 18.7694 27.9356 18.6158 27.9976C18.5286 28 18.4388 28.0056 18.3548 27.9781C18.22 27.934 18.1069 27.8348 18.0457 27.7073C17.987 27.5848 17.9851 27.4268 18.0388 27.3026C18.1039 27.1521 18.2296 27.0679 18.3749 27.005Z" fill="#2F201C"/>
<path d="M28.8073 25.671L29.1523 23.0071L30.5186 22.9998L30.8279 25.6735L31.0195 27.5036L31.3655 31.3382L31.4429 32.1399C31.4516 32.2269 31.4482 32.3704 31.4759 32.4475C31.5088 32.5395 31.6318 32.6617 31.6864 32.7514C31.8994 33.1014 31.9931 33.5226 31.9998 33.9328C32.0075 34.4192 31.829 34.9405 31.5218 35.3121L31.3735 35.4847C30.9021 35.9089 30.459 36.1224 29.8247 36.1325L29.8195 41.9998C29.2359 41.9791 28.6667 41.9564 28.0924 41.8345C27.2453 41.6548 26.4134 41.2523 25.6812 40.7867C23.9758 39.7023 22.6707 37.7872 22.2191 35.7769C21.7547 33.7092 22.0157 31.3024 23.1251 29.4885C24.0804 27.9265 25.4266 26.7684 27.1182 26.1422C27.6722 25.9371 28.2349 25.8054 28.8073 25.671Z" fill="white"/>
<path d="M29.0049 25.644L29.3285 23.007L30.6102 22.9998L30.9004 25.6465L31.0802 27.4581L31.4048 31.2539L31.4774 32.0475C31.4855 32.1337 31.4824 32.2757 31.5083 32.352C31.5392 32.4431 31.6546 32.5641 31.7058 32.6529C31.9056 32.9993 31.9936 33.4162 31.9998 33.8224C32.0071 34.3038 31.8396 34.8198 31.5514 35.1876L31.4122 35.3585C30.97 35.7785 30.5543 35.9898 29.9593 35.9998L29.6647 35.9639C29.135 35.8826 28.6746 35.5552 28.3613 35.0888C28.0372 34.6064 27.9446 34.0393 28.03 33.455C28.1075 32.9243 28.4019 32.4751 28.7961 32.1642L28.8243 32.1423C28.6988 29.9656 28.7702 27.8099 29.0049 25.644Z" fill="#2F201C"/>
<path d="M29.884 31.9998C30.1402 32.0051 30.3352 32.0172 30.56 32.1648C30.7748 32.3057 30.9253 32.5319 30.9767 32.7845C31.0319 33.0562 30.9908 33.3243 30.8358 33.5557C30.6618 33.8153 30.4261 33.9416 30.1245 33.9954C29.9103 34.013 29.7035 33.9783 29.515 33.8706C29.2731 33.7325 29.0895 33.4892 29.0249 33.217C28.9625 32.9546 29.0199 32.6552 29.1697 32.4328C29.3428 32.1758 29.5902 32.0523 29.884 31.9998Z" fill="white"/>
<defs>
<linearGradient id="paint0_linear_1_234" x1="44.1362" y1="17.0011" x2="46" y2="17.0011" gradientUnits="userSpaceOnUse">
<stop stop-color="#FF372A"/>
<stop offset="1" stop-color="#FF1514"/>
</linearGradient>
<linearGradient id="paint1_linear_1_234" x1="14.1362" y1="17.0011" x2="16" y2="17.0011" gradientUnits="userSpaceOnUse">
<stop stop-color="#FF372A"/>
<stop offset="1" stop-color="#FF1514"/>
</linearGradient>
<linearGradient id="paint2_linear_1_234" x1="44.3405" y1="15.5031" x2="49" y2="15.5031" gradientUnits="userSpaceOnUse">
<stop stop-color="#FF372A"/>
<stop offset="1" stop-color="#FF1514"/>
</linearGradient>
<linearGradient id="paint3_linear_1_234" x1="11.3405" y1="15.5031" x2="16" y2="15.5031" gradientUnits="userSpaceOnUse">
<stop stop-color="#FF372A"/>
<stop offset="1" stop-color="#FF1514"/>
</linearGradient>
<linearGradient id="paint4_linear_1_234" x1="26.5448" y1="5.50177" x2="34" y2="5.50177" gradientUnits="userSpaceOnUse">
<stop stop-color="#FF372A"/>
<stop offset="1" stop-color="#FF1514"/>
</linearGradient>
<linearGradient id="paint5_linear_1_234" x1="25.6811" y1="9.50311" x2="35" y2="9.50311" gradientUnits="userSpaceOnUse">
<stop stop-color="#FF372A"/>
<stop offset="1" stop-color="#FF1514"/>
</linearGradient>
<linearGradient id="paint6_linear_1_234" x1="27.4086" y1="10.5004" x2="33" y2="10.5004" gradientUnits="userSpaceOnUse">
<stop stop-color="#FF372A"/>
<stop offset="1" stop-color="#FF1514"/>
</linearGradient>
<linearGradient id="paint7_linear_1_234" x1="27.4086" y1="12.0011" x2="33" y2="12.0011" gradientUnits="userSpaceOnUse">
<stop stop-color="#FF372A"/>
<stop offset="1" stop-color="#FF1514"/>
</linearGradient>
<linearGradient id="paint8_linear_1_234" x1="11.9285" y1="33.5286" x2="51.9999" y2="33.5286" gradientUnits="userSpaceOnUse">
<stop stop-color="#FF372A"/>
<stop offset="1" stop-color="#FF1514"/>
</linearGradient>
<linearGradient id="paint9_linear_1_234" x1="15.2475" y1="33.0212" x2="45.9999" y2="33.0212" gradientUnits="userSpaceOnUse">
<stop stop-color="#FF372A"/>
<stop offset="1" stop-color="#FF1514"/>
</linearGradient>
<linearGradient id="paint10_linear_1_234" x1="30.0681" y1="47.0024" x2="31" y2="47.0024" gradientUnits="userSpaceOnUse">
<stop stop-color="#FF372A"/>
<stop offset="1" stop-color="#FF1514"/>
</linearGradient>
<linearGradient id="paint11_linear_1_234" x1="31.3405" y1="20.0011" x2="36" y2="20.0011" gradientUnits="userSpaceOnUse">
<stop stop-color="#FF372A"/>
<stop offset="1" stop-color="#FF1514"/>
</linearGradient>
<linearGradient id="paint12_linear_1_234" x1="31.9535" y1="34.0185" x2="45" y2="34.0185" gradientUnits="userSpaceOnUse">
<stop stop-color="#FF372A"/>
<stop offset="1" stop-color="#FF1514"/>
</linearGradient>
<linearGradient id="paint13_linear_1_234" x1="31.1578" y1="33.5205" x2="47" y2="33.5205" gradientUnits="userSpaceOnUse">
<stop stop-color="#FF372A"/>
<stop offset="1" stop-color="#FF1514"/>
</linearGradient>
</defs>
</svg>
