<svg width="822" height="12" viewBox="0 0 822 12" fill="none" xmlns="http://www.w3.org/2000/svg">
<path fill-rule="evenodd" clip-rule="evenodd" d="M411.301 6.98858C433.185 3.65267 447.457 2 454.2 2C455.764 2 456.842 2.09032 457.496 2.2385C457.24 2.43697 456.88 2.67144 456.401 2.94106C455.344 3.53569 453.809 4.24644 451.774 5.07362C449.709 5.91311 448.084 6.66069 446.919 7.31606C446.338 7.64314 445.847 7.96106 445.466 8.27095C445.107 8.56245 444.745 8.9264 444.563 9.37065C444.464 9.61158 444.408 9.90209 444.463 10.216C444.519 10.5331 444.673 10.7917 444.861 10.9882C445.204 11.346 445.689 11.535 446.123 11.6527C447.029 11.8981 448.381 12 450.1 12C457.024 12 471.451 10.3193 493.301 6.98858C515.185 3.65267 529.457 2 536.2 2C537.764 2 538.842 2.09032 539.496 2.2385C539.24 2.43697 538.88 2.67144 538.401 2.94106C537.344 3.53569 535.809 4.24644 533.774 5.07362C531.709 5.91311 530.084 6.66069 528.919 7.31606C528.338 7.64314 527.847 7.96106 527.466 8.27095C527.107 8.56245 526.745 8.9264 526.563 9.37065C526.464 9.61158 526.408 9.90209 526.463 10.216C526.519 10.5331 526.673 10.7917 526.861 10.9882C527.204 11.346 527.689 11.535 528.123 11.6527C529.029 11.8981 530.381 12 532.1 12C539.023 12 553.451 10.3193 575.301 6.98858C597.185 3.65267 611.457 2 618.2 2C619.764 2 620.842 2.09032 621.496 2.2385C621.24 2.43697 620.88 2.67144 620.401 2.94106C619.344 3.53569 617.809 4.24644 615.774 5.07362C613.709 5.91311 612.084 6.66069 610.919 7.31606C610.338 7.64314 609.847 7.96106 609.466 8.27095C609.107 8.56245 608.745 8.9264 608.563 9.37065C608.464 9.61158 608.408 9.90209 608.463 10.216C608.519 10.5331 608.673 10.7917 608.861 10.9882C609.204 11.346 609.689 11.535 610.123 11.6527C611.029 11.8981 612.381 12 614.1 12C621.024 12 635.451 10.3193 657.301 6.98858C679.185 3.65267 693.457 2 700.2 2C701.764 2 702.842 2.09031 703.496 2.2385C703.24 2.43696 702.88 2.67144 702.401 2.94106C701.344 3.53569 699.809 4.24644 697.774 5.07362C695.709 5.91311 694.084 6.66069 692.919 7.31606C692.338 7.64314 691.847 7.96106 691.466 8.27095C691.107 8.56245 690.745 8.9264 690.563 9.37065C690.464 9.61158 690.408 9.90209 690.463 10.216C690.519 10.5331 690.673 10.7917 690.861 10.9882C691.204 11.346 691.689 11.535 692.123 11.6527C693.029 11.8981 694.381 12 696.1 12C703.024 12 717.451 10.3193 739.301 6.98858C761.185 3.65267 775.457 2 782.2 2C783.764 2 784.842 2.09031 785.496 2.2385C785.24 2.43696 784.88 2.67144 784.401 2.94106C783.344 3.53569 781.809 4.24644 779.774 5.07362C777.709 5.91311 776.084 6.66069 774.919 7.31606C774.338 7.64314 773.847 7.96106 773.466 8.27095C773.107 8.56245 772.745 8.9264 772.563 9.37065C772.464 9.61158 772.408 9.90209 772.463 10.216C772.519 10.5331 772.673 10.7917 772.861 10.9882C773.204 11.346 773.689 11.535 774.123 11.6527C775.029 11.8981 776.381 12 778.1 12C785.024 12 799.451 10.3193 821.301 6.98858L821 5.01142C799.116 8.34733 784.844 10 778.1 10C776.537 10 775.459 9.90969 774.805 9.7615C775.061 9.56304 775.421 9.32856 775.9 9.05894C776.957 8.46431 778.492 7.75356 780.527 6.92638C782.592 6.08689 784.217 5.33931 785.381 4.68394C785.963 4.35686 786.454 4.03894 786.835 3.72905C787.194 3.43755 787.556 3.0736 787.738 2.62935C787.837 2.38842 787.893 2.09791 787.838 1.78397C787.782 1.46687 787.627 1.20832 787.439 1.01185C787.097 0.65401 786.612 0.46497 786.178 0.347315C785.272 0.101943 783.92 0 782.2 0C775.277 0 760.849 1.68067 739 5.01142C717.116 8.34733 702.844 10 696.1 10C694.537 10 693.459 9.90969 692.805 9.7615C693.061 9.56304 693.421 9.32856 693.9 9.05894C694.957 8.46431 696.492 7.75356 698.527 6.92638C700.592 6.08689 702.217 5.33931 703.381 4.68394C703.963 4.35686 704.454 4.03894 704.835 3.72905C705.194 3.43755 705.556 3.0736 705.738 2.62935C705.837 2.38842 705.893 2.09791 705.838 1.78397C705.782 1.46687 705.627 1.20832 705.439 1.01185C705.097 0.65401 704.612 0.46497 704.178 0.347315C703.272 0.101943 701.92 0 700.2 0C693.277 0 678.849 1.68067 657 5.01142C635.116 8.34733 620.844 10 614.1 10C612.537 10 611.459 9.90969 610.805 9.7615C611.061 9.56304 611.421 9.32856 611.9 9.05894C612.957 8.46431 614.492 7.75356 616.527 6.92638C618.592 6.08689 620.217 5.33931 621.382 4.68394C621.963 4.35686 622.454 4.03894 622.835 3.72905C623.194 3.43755 623.556 3.0736 623.738 2.62935C623.837 2.38842 623.893 2.09791 623.838 1.78397C623.782 1.46687 623.627 1.20832 623.439 1.01185C623.097 0.65401 622.612 0.46497 622.178 0.347315C621.272 0.101943 619.92 0 618.2 0C611.277 0 596.849 1.68067 575 5.01142C553.116 8.34733 538.844 10 532.1 10C530.537 10 529.459 9.90969 528.805 9.7615C529.061 9.56304 529.421 9.32856 529.9 9.05894C530.957 8.46431 532.492 7.75356 534.527 6.92638C536.592 6.08689 538.217 5.33931 539.382 4.68394C539.963 4.35686 540.454 4.03894 540.835 3.72905C541.194 3.43755 541.556 3.0736 541.738 2.62935C541.837 2.38842 541.893 2.09791 541.838 1.78397C541.782 1.46687 541.627 1.20832 541.439 1.01185C541.097 0.65401 540.612 0.46497 540.178 0.347315C539.272 0.101943 537.92 0 536.2 0C529.277 0 514.849 1.68067 493 5.01142C471.116 8.34733 456.844 10 450.1 10C448.537 10 447.459 9.90969 446.805 9.7615C447.061 9.56304 447.421 9.32856 447.9 9.05894C448.957 8.46431 450.492 7.75356 452.527 6.92638C454.592 6.08689 456.217 5.33931 457.382 4.68394C457.963 4.35686 458.454 4.03894 458.835 3.72905C459.194 3.43755 459.556 3.0736 459.738 2.62935C459.837 2.38842 459.893 2.09791 459.838 1.78397C459.782 1.46687 459.627 1.20832 459.439 1.01185C459.097 0.65401 458.612 0.46497 458.178 0.347315C457.272 0.101943 455.92 0 454.2 0C447.277 0 432.849 1.68067 411 5.01142L411.301 6.98858ZM0.301396 6.98861C22.185 3.6527 36.4572 2.00003 43.2007 2.00003C44.7642 2.00003 45.8422 2.09035 46.4965 2.23853C46.24 2.437 45.8799 2.67147 45.4008 2.94109C44.3444 3.53572 42.809 4.24647 40.7741 5.07365C38.709 5.91314 37.084 6.66072 35.9196 7.31609C35.3385 7.64317 34.8471 7.96109 34.466 8.27098C34.1074 8.56248 33.7451 8.92643 33.5629 9.37068C33.4642 9.61161 33.4081 9.90212 33.4632 10.2161C33.519 10.5332 33.6737 10.7917 33.8617 10.9882C34.204 11.346 34.6894 11.5351 35.1235 11.6527C36.0289 11.8981 37.381 12 39.1007 12C46.0238 12 60.4516 10.3194 82.3014 6.98861C104.185 3.6527 118.457 2.00003 125.201 2.00003C126.764 2.00003 127.842 2.09035 128.496 2.23853C128.24 2.437 127.88 2.67147 127.401 2.94109C126.344 3.53572 124.809 4.24647 122.774 5.07365C120.709 5.91314 119.084 6.66072 117.92 7.31609C117.338 7.64317 116.847 7.96109 116.466 8.27098C116.107 8.56248 115.745 8.92643 115.563 9.37068C115.464 9.61161 115.408 9.90212 115.463 10.2161C115.519 10.5332 115.674 10.7917 115.862 10.9882C116.204 11.346 116.689 11.5351 117.124 11.6527C118.029 11.8981 119.381 12 121.101 12C128.024 12 142.452 10.3194 164.301 6.98861C186.185 3.6527 200.457 2.00003 207.201 2.00003C208.764 2.00003 209.842 2.09035 210.496 2.23853C210.24 2.437 209.88 2.67147 209.401 2.94109C208.344 3.53572 206.809 4.24647 204.774 5.07365C202.709 5.91314 201.084 6.66072 199.92 7.31609C199.338 7.64317 198.847 7.96109 198.466 8.27098C198.107 8.56248 197.745 8.92643 197.563 9.37068C197.464 9.61161 197.408 9.90212 197.463 10.2161C197.519 10.5332 197.674 10.7917 197.862 10.9882C198.204 11.346 198.689 11.5351 199.124 11.6527C200.029 11.8981 201.381 12 203.101 12C210.024 12 224.452 10.3194 246.301 6.98861C268.185 3.6527 282.457 2.00003 289.201 2.00003C290.764 2.00003 291.842 2.09035 292.496 2.23853C292.24 2.437 291.88 2.67147 291.401 2.94109C290.344 3.53572 288.809 4.24647 286.774 5.07365C284.709 5.91314 283.084 6.66072 281.92 7.31609C281.338 7.64317 280.847 7.96109 280.466 8.27098C280.107 8.56248 279.745 8.92643 279.563 9.37068C279.464 9.61161 279.408 9.90212 279.463 10.2161C279.519 10.5332 279.674 10.7917 279.862 10.9882C280.204 11.346 280.689 11.5351 281.124 11.6527C282.029 11.8981 283.381 12 285.101 12C292.024 12 306.452 10.3194 328.301 6.98861C350.185 3.6527 364.457 2.00003 371.201 2.00003C372.764 2.00003 373.842 2.09035 374.496 2.23853C374.24 2.437 373.88 2.67147 373.401 2.94109C372.344 3.53572 370.809 4.24647 368.774 5.07365C366.709 5.91314 365.084 6.66072 363.92 7.31609C363.338 7.64317 362.847 7.96109 362.466 8.27098C362.107 8.56248 361.745 8.92643 361.563 9.37068C361.464 9.61161 361.408 9.90212 361.463 10.2161C361.519 10.5332 361.674 10.7917 361.862 10.9882C362.204 11.346 362.689 11.5351 363.124 11.6527C364.029 11.8981 365.381 12 367.101 12C374.024 12 388.452 10.3194 410.301 6.98861L410 5.01145C388.116 8.34736 373.844 10 367.101 10C365.537 10 364.459 9.90972 363.805 9.76153C364.061 9.56307 364.422 9.32859 364.901 9.05898C365.957 8.46434 367.492 7.75359 369.527 6.92641C371.592 6.08693 373.217 5.33934 374.382 4.68398C374.963 4.35689 375.454 4.03897 375.835 3.72908C376.194 3.43758 376.556 3.07363 376.738 2.62938C376.837 2.38845 376.893 2.09794 376.838 1.784C376.782 1.4669 376.628 1.20835 376.44 1.01188C376.097 0.654041 375.612 0.465 375.178 0.347345C374.272 0.101974 372.92 3.05176e-05 371.201 3.05176e-05C364.278 3.05176e-05 349.85 1.6807 328 5.01145C306.116 8.34736 291.844 10 285.101 10C283.537 10 282.459 9.90972 281.805 9.76153C282.061 9.56307 282.422 9.32859 282.901 9.05898C283.957 8.46434 285.492 7.75359 287.527 6.92641C289.592 6.08693 291.217 5.33934 292.382 4.68398C292.963 4.35689 293.454 4.03897 293.835 3.72908C294.194 3.43758 294.556 3.07363 294.738 2.62938C294.837 2.38845 294.893 2.09794 294.838 1.784C294.782 1.4669 294.628 1.20835 294.44 1.01188C294.097 0.654041 293.612 0.465 293.178 0.347345C292.272 0.101974 290.92 3.05176e-05 289.201 3.05176e-05C282.278 3.05176e-05 267.85 1.6807 246 5.01145C224.116 8.34736 209.844 10 203.101 10C201.537 10 200.459 9.90972 199.805 9.76153C200.061 9.56307 200.422 9.32859 200.901 9.05898C201.957 8.46434 203.492 7.75359 205.527 6.92641C207.592 6.08693 209.217 5.33934 210.382 4.68398C210.963 4.35689 211.454 4.03897 211.835 3.72908C212.194 3.43758 212.556 3.07363 212.738 2.62938C212.837 2.38845 212.893 2.09794 212.838 1.784C212.782 1.4669 212.628 1.20835 212.44 1.01188C212.097 0.654041 211.612 0.465 211.178 0.347345C210.272 0.101974 208.92 3.05176e-05 207.201 3.05176e-05C200.278 3.05176e-05 185.85 1.6807 164 5.01145C142.116 8.34736 127.844 10 121.101 10C119.537 10 118.459 9.90972 117.805 9.76153C118.061 9.56307 118.422 9.32859 118.901 9.05898C119.957 8.46434 121.492 7.75359 123.527 6.92641C125.592 6.08693 127.217 5.33934 128.382 4.68398C128.963 4.35689 129.454 4.03897 129.835 3.72908C130.194 3.43758 130.556 3.07363 130.738 2.62938C130.837 2.38845 130.893 2.09794 130.838 1.784C130.782 1.4669 130.628 1.20835 130.44 1.01188C130.097 0.654041 129.612 0.465 129.178 0.347345C128.272 0.101974 126.92 3.05176e-05 125.201 3.05176e-05C118.278 3.05176e-05 103.85 1.6807 82 5.01145C60.1164 8.34736 45.8442 10 39.1007 10C37.5372 10 36.4592 9.90972 35.8049 9.76153C36.0614 9.56307 36.4215 9.32859 36.9006 9.05898C37.957 8.46434 39.4924 7.75359 41.5273 6.92641C43.5924 6.08693 45.2174 5.33934 46.3818 4.68398C46.9629 4.35689 47.4543 4.03897 47.8354 3.72908C48.194 3.43758 48.5563 3.07363 48.7385 2.62938C48.8372 2.38845 48.8933 2.09794 48.8382 1.784C48.7824 1.4669 48.6277 1.20835 48.4397 1.01188C48.0974 0.654041 47.612 0.465 47.1779 0.347345C46.2725 0.101974 44.9204 3.05176e-05 43.2007 3.05176e-05C36.2776 3.05176e-05 21.8497 1.6807 0 5.01145L0.301396 6.98861Z" fill="url(#paint0_linear_1_129)"/>
<defs>
<linearGradient id="paint0_linear_1_129" x1="55.9351" y1="6.00806" x2="821.299" y2="6.00806" gradientUnits="userSpaceOnUse">
<stop stop-color="#FF372A"/>
<stop offset="1" stop-color="#FF1514"/>
</linearGradient>
</defs>
</svg>
